<?xml version="1.0" encoding="utf-8"?>
<!-- Generator: Adobe Illustrator 19.1.0, SVG Export Plug-In . SVG Version: 6.00 Build 0)  -->
<svg version="1.1" id="Layer_1" xmlns="http://www.w3.org/2000/svg" xmlns:xlink="http://www.w3.org/1999/xlink" x="0px" y="0px"
	 viewBox="-265 388.9 157.1 64" style="enable-background:new -265 388.9 157.1 64;" xml:space="preserve">
<style type="text/css">
	.st0{fill:#0073AA;}
	.st1{fill:#BA3231;}
	.st2{fill:#FFFFFF;}
	.st3{fill-rule:evenodd;clip-rule:evenodd;fill:#FFFFFF;}
	.st4{font-family:'Baskerville-Italic';}
	.st5{font-size:16.1603px;}
</style>
<g>
	<g>
		<path class="st0" d="M-260.5,420.9c0,10.9,6.3,20.3,15.5,24.7l-13.1-35.9C-259.6,413.1-260.5,416.9-260.5,420.9L-260.5,420.9z
			 M-214.5,419.5c0-3.4-1.2-5.7-2.3-7.6c-1.4-2.3-2.7-4.2-2.7-6.4c0-2.5,1.9-4.9,4.6-4.9c0.1,0,0.2,0,0.4,0
			c-4.9-4.5-11.5-7.3-18.6-7.2c-9.6,0-18,4.9-22.9,12.4c0.6,0,1.3,0,1.8,0c2.9,0,7.3-0.3,7.3-0.3c1.5-0.1,1.7,2.1,0.2,2.3
			c0,0-1.5,0.2-3.1,0.3l10,29.7l6-18l-4.3-11.7c-1.5-0.1-2.9-0.3-2.9-0.3c-1.5-0.1-1.3-2.3,0.2-2.3c0,0,4.5,0.3,7.2,0.3
			c2.9,0,7.3-0.3,7.3-0.3c1.5-0.1,1.7,2.1,0.2,2.3c0,0-1.5,0.2-3.1,0.3l9.9,29.5l2.7-9.1C-215.4,424.6-214.5,421.9-214.5,419.5
			L-214.5,419.5z M-232.5,423.3l-8.2,23.9c2.5,0.7,5.1,1.1,7.8,1.1c3.2,0,6.3-0.6,9.1-1.6c-0.1-0.1-0.1-0.2-0.2-0.4L-232.5,423.3z
			 M-208.9,407.7c0.1,0.9,0.2,1.8,0.2,2.8c0,2.8-0.5,5.9-2.1,9.8l-8.4,24.2c8.2-4.8,13.6-13.6,13.6-23.7
			C-205.5,416.1-206.8,411.6-208.9,407.7L-208.9,407.7z M-233,388.9c-17.6,0-32,14.4-32,32c0,17.6,14.4,32,32,32s32-14.4,32-32
			C-201,403.3-215.4,388.9-233,388.9z M-233,451.4c-16.8,0-30.5-13.7-30.5-30.5c0-16.8,13.7-30.5,30.5-30.5s30.5,13.7,30.5,30.5
			C-202.5,437.7-216.2,451.4-233,451.4z"/>
	</g>
</g>
<g>
	<circle class="st1" cx="-139.9" cy="420.9" r="32"/>
	<path class="st2" d="M-139.6,449.7c-15.7,0-28.5-12.8-28.5-28.5c0-15.7,12.8-28.5,28.5-28.5c15.7,0,28.5,12.8,28.5,28.5
		C-111.1,436.9-123.9,449.7-139.6,449.7z M-139.6,395.6c-14.1,0-25.6,11.5-25.6,25.6c0,14.1,11.5,25.6,25.6,25.6
		c14.1,0,25.6-11.5,25.6-25.6C-114,407.1-125.5,395.6-139.6,395.6z"/>
	<path class="st2" d="M-117.1,407.4c-2.9,0-5.3-2.4-5.3-5.3s2.4-5.3,5.3-5.3c2.9,0,5.3,2.4,5.3,5.3S-114.2,407.4-117.1,407.4z
		 M-117.1,400.7c-0.8,0-1.4,0.6-1.4,1.4s0.6,1.4,1.4,1.4c0.8,0,1.4-0.6,1.4-1.4S-116.3,400.7-117.1,400.7z"/>
	<path class="st2" d="M-117.1,409.1c-3.8,0-7-3.1-7-7c0-3.8,3.1-7,7-7c3.8,0,7,3.1,7,7C-110.1,406-113.3,409.1-117.1,409.1z
		 M-117.1,399.1c-1.7,0-3.1,1.4-3.1,3.1c0,1.7,1.4,3.1,3.1,3.1c1.7,0,3.1-1.4,3.1-3.1C-114,400.5-115.4,399.1-117.1,399.1z"/>
	<rect x="-153.9" y="410.1" class="st3" width="5.5" height="20.6"/>
	<path class="st3" d="M-128.8,420.3c0-2-0.5-3.6-1.4-4.8c-1.1-1.3-2.7-2-4.8-2c-2.1,0-3.7,0.7-4.7,2.2c-0.9,1.2-1.3,2.8-1.3,4.7
		c0,2.2,0.4,3.9,1.1,4.9c1,1.5,2.8,2.2,5.4,2.2c2.2,0,3.8-0.7,4.7-2.2C-129.2,424.1-128.8,422.5-128.8,420.3z M-123.6,420.4
		c0,4-1.1,6.9-3.3,8.6c-1.8,1.4-4.4,2.1-7.9,2.1c-3.8,0-6.7-0.8-8.5-2.4c-2-1.8-3-4.6-3-8.5c0-3.2,0.9-5.7,2.7-7.5
		c1.9-1.9,4.9-2.9,8.7-2.9c4.3,0,7.3,0.9,9,2.8C-124.4,414.2-123.6,416.8-123.6,420.4z"/>
	<circle class="st1" cx="-117.1" cy="402.2" r="5"/>
	<circle class="st3" cx="-117.1" cy="402.1" r="2.6"/>
</g>
<text transform="matrix(1 0 0 1 -193.5645 424.8701)" class="st4 st5">&amp;</text>
</svg>
