<svg id="Layer_1" xmlns="http://www.w3.org/2000/svg" viewBox="-265 388.9 157.1 64"><style>.st0{fill:#0073aa}.st1{fill:#ba3231}.st2,.st3{fill:#fff}.st3{fill-rule:evenodd;clip-rule:evenodd}.st4{font-family:&apos;Baskerville-Italic&apos;}.st5{font-size:16.1603px}</style><path class="st0" d="M-260.5 420.9c0 10.9 6.3 20.3 15.5 24.7l-13.1-35.9c-1.5 3.4-2.4 7.2-2.4 11.2zm46-1.4c0-3.4-1.2-5.7-2.3-7.6-1.4-2.3-2.7-4.2-2.7-6.4 0-2.5 1.9-4.9 4.6-4.9h.4c-4.9-4.5-11.5-7.3-18.6-7.2-9.6 0-18 4.9-22.9 12.4h1.8c2.9 0 7.3-.3 7.3-.3 1.5-.1 1.7 2.1.2 2.3 0 0-1.5.2-3.1.3l10 29.7 6-18-4.3-11.7c-1.5-.1-2.9-.3-2.9-.3-1.5-.1-1.3-2.3.2-2.3 0 0 4.5.3 7.2.3 2.9 0 7.3-.3 7.3-.3 1.5-.1 1.7 2.1.2 2.3 0 0-1.5.2-3.1.3l9.9 29.5 2.7-9.1c1.2-3.9 2.1-6.6 2.1-9zm-18 3.8l-8.2 23.9c2.5.7 5.1 1.1 7.8 1.1 3.2 0 6.3-.6 9.1-1.6-.1-.1-.1-.2-.2-.4l-8.5-23zm23.6-15.6c.1.9.2 1.8.2 2.8 0 2.8-.5 5.9-2.1 9.8l-8.4 24.2c8.2-4.8 13.6-13.6 13.6-23.7.1-4.7-1.2-9.2-3.3-13.1zm-24.1-18.8c-17.6 0-32 14.4-32 32s14.4 32 32 32 32-14.4 32-32-14.4-32-32-32zm0 62.5c-16.8 0-30.5-13.7-30.5-30.5s13.7-30.5 30.5-30.5 30.5 13.7 30.5 30.5-13.7 30.5-30.5 30.5z"/><circle class="st1" cx="-139.9" cy="420.9" r="32"/><path class="st2" d="M-139.6 449.7c-15.7 0-28.5-12.8-28.5-28.5s12.8-28.5 28.5-28.5 28.5 12.8 28.5 28.5-12.8 28.5-28.5 28.5zm0-54.1c-14.1 0-25.6 11.5-25.6 25.6 0 14.1 11.5 25.6 25.6 25.6 14.1 0 25.6-11.5 25.6-25.6 0-14.1-11.5-25.6-25.6-25.6z"/><path class="st2" d="M-117.1 407.4c-2.9 0-5.3-2.4-5.3-5.3s2.4-5.3 5.3-5.3 5.3 2.4 5.3 5.3-2.4 5.3-5.3 5.3zm0-6.7c-.8 0-1.4.6-1.4 1.4s.6 1.4 1.4 1.4c.8 0 1.4-.6 1.4-1.4s-.6-1.4-1.4-1.4z"/><path class="st2" d="M-117.1 409.1c-3.8 0-7-3.1-7-7 0-3.8 3.1-7 7-7 3.8 0 7 3.1 7 7s-3.2 7-7 7zm0-10c-1.7 0-3.1 1.4-3.1 3.1 0 1.7 1.4 3.1 3.1 3.1 1.7 0 3.1-1.4 3.1-3.1 0-1.7-1.4-3.1-3.1-3.1z"/><path class="st3" d="M-153.9 410.1h5.5v20.6h-5.5zm25.1 10.2c0-2-.5-3.6-1.4-4.8-1.1-1.3-2.7-2-4.8-2-2.1 0-3.7.7-4.7 2.2-.9 1.2-1.3 2.8-1.3 4.7 0 2.2.4 3.9 1.1 4.9 1 1.5 2.8 2.2 5.4 2.2 2.2 0 3.8-.7 4.7-2.2.6-1.2 1-2.8 1-5zm5.2.1c0 4-1.1 6.9-3.3 8.6-1.8 1.4-4.4 2.1-7.9 2.1-3.8 0-6.7-.8-8.5-2.4-2-1.8-3-4.6-3-8.5 0-3.2.9-5.7 2.7-7.5 1.9-1.9 4.9-2.9 8.7-2.9 4.3 0 7.3.9 9 2.8 1.5 1.6 2.3 4.2 2.3 7.8z"/><circle class="st1" cx="-117.1" cy="402.2" r="5"/><circle class="st3" cx="-117.1" cy="402.1" r="2.6"/><text transform="translate(-193.565 424.87)" class="st4 st5">&amp;</text></svg>