<?xml version="1.0" encoding="UTF-8"?>
<svg width="240px" height="108px" viewBox="0 0 240 108" version="1.1" xmlns="http://www.w3.org/2000/svg" xmlns:xlink="http://www.w3.org/1999/xlink">
    <title>Logo</title>
    <g id="Twitter" stroke="none" stroke-width="1" fill="none" fill-rule="evenodd">
        <g id="Twitter-avatar" transform="translate(-30.000000, -96.000000)">
            <g id="Logo" transform="translate(30.000000, 96.000000)">
                <path d="M29.5611009,21.9375 L29.5611009,41.2908794 L49.4063853,41.2908794 L49.4063853,56.1144537 L29.5611009,56.1144537 L29.5611009,82.331611 C29.5611009,90.2929254 33.7244742,92.6261394 38.164894,92.6261394 C41.913081,92.6261394 45.1048726,90.2929254 45.1048726,90.2929254 L51.2106416,103.7442 C51.2106416,103.7442 44.9659655,108 35.3898234,108 C22.6218898,108 12.9068407,98.8030082 12.9068407,84.9395885 L12.9068407,56.1144537 L1.77635684e-14,56.1144537 L1.77635684e-14,41.2908794 L12.9068407,41.2908794 L12.9068407,21.9375 L29.5611009,21.9375 Z M91.5905269,39.6437396 C109.632322,39.6437396 124.76014,53.5071593 124.76014,73.5474477 L124.760001,73.9537784 C124.758744,75.2766219 124.746173,77.5007045 124.620466,79.7235575 L75.4911272,79.7235575 C76.7405229,85.4890399 83.5415945,92.9008271 93.9496438,92.9008271 C105.468949,92.9008271 111.991439,86.3125718 111.991439,86.3125718 L120.318953,98.6655504 C120.318953,98.6655504 109.910136,107.999924 93.9496438,107.999924 C73.9646849,107.999924 58.5598204,92.9008271 58.5598204,73.8214524 C58.5598204,54.7420776 72.5763822,39.6437396 91.5905269,39.6437396 Z M172.214537,39.6435878 C184.982471,39.6435878 196.363636,48.565816 196.363636,64.2129223 L196.363636,106.352708 L179.708609,106.352708 L179.708609,68.3313408 C179.708609,58.9969672 173.880654,55.0174485 166.662861,55.0174485 C158.059068,55.0174485 153.617881,63.3893904 153.617881,63.3893904 L153.617881,106.352708 L136.964388,106.352708 L136.964388,41.2906517 L152.507392,41.2906517 L152.507392,50.7616481 C152.507392,50.7616481 158.336115,39.6435878 172.214537,39.6435878 Z M91.5905269,54.6054548 C80.9046636,54.6054548 76.0467553,62.017242 75.4911272,67.7819654 L108.105113,67.7819654 C107.828066,62.1546238 102.554204,54.6054548 91.5905269,54.6054548 Z" id="ten" fill="#14113F"></path>
                <path d="M218.180265,0 C230.232021,0 240,9.67052723 240,21.598095 C240,33.5287108 230.232797,43.2 218.180265,43.2 C206.127733,43.2 196.363636,33.5287108 196.363636,21.598095 C196.363636,9.67052723 206.128509,0 218.180265,0 M218.990187,8.56486691 L211.335147,19.4164923 C210.975614,19.9255076 210.861464,20.5625386 211.021429,21.1614697 L214.436611,33.9302842 C214.847396,35.4687598 216.905978,35.8246133 217.828497,34.5177853 L225.483536,23.6661598 C225.842293,23.1571446 225.95722,22.5201136 225.797254,21.9219445 L222.381296,9.15236802 C221.970511,7.61389237 219.911928,7.25727691 218.990187,8.56486691" id="Compass-icon" fill="#6BC9A5"></path>
            </g>
        </g>
    </g>
</svg>